<svg width="346" height="260" viewBox="0 0 346 260" fill="none" xmlns="http://www.w3.org/2000/svg">
<path d="M304.971 39.9789L276.814 40.2596C275.491 33.5919 271.044 16.0969 275.049 11.325C275.231 9.52894 276.083 7.87415 277.428 6.70508C278.773 5.53601 280.506 4.94275 282.268 5.04878C286.632 -1.94218 293.901 -0.89253 298.814 3.47363C303.759 5.2196 305.623 8.32142 304.971 12.5307C308.633 15.8109 309.308 19.8016 307.665 24.3444L304.971 39.9789Z" fill="#2F2E41"/>
<path d="M302.26 57.7295L281.946 54.8511L277.883 48.7743C283.48 44.9751 285.46 39.6687 282.884 32.4629L296.947 32.143C296.288 38.5599 298.362 43.5284 304.136 46.5355L302.26 57.7295Z" fill="#9F616A"/>
<path d="M277.143 245.241L276.366 256.108C276.331 256.6 276.399 257.094 276.566 257.557C276.732 258.02 276.994 258.441 277.333 258.792C277.671 259.143 278.079 259.415 278.529 259.592C278.979 259.768 279.461 259.844 279.942 259.814L285.397 259.476C285.649 259.46 285.896 259.388 286.118 259.264C286.34 259.139 286.533 258.967 286.683 258.758C286.832 258.549 286.935 258.309 286.984 258.054C287.033 257.8 287.026 257.538 286.965 257.287L283.937 244.893L277.143 245.241Z" fill="#E6E6E6"/>
<path d="M294.802 244.893L291.774 257.287C291.712 257.538 291.706 257.8 291.755 258.054C291.803 258.309 291.906 258.549 292.056 258.758C292.206 258.967 292.399 259.14 292.621 259.264C292.843 259.388 293.089 259.46 293.342 259.476L298.797 259.814C299.278 259.844 299.759 259.768 300.209 259.592C300.66 259.415 301.068 259.143 301.406 258.792C301.745 258.441 302.006 258.02 302.173 257.557C302.34 257.094 302.408 256.6 302.372 256.108L301.596 245.241L294.802 244.893Z" fill="#E6E6E6"/>
<path d="M301.948 246.75L294.587 245.994L287.259 165.833L284.49 245.736L277.258 245.471L265.069 134.809H311.636L301.948 246.75Z" fill="#1E4573"/>
<path d="M290.697 37.5802C298.464 37.5802 304.761 31.1365 304.761 23.1878C304.761 15.2391 298.464 8.79535 290.697 8.79535C282.93 8.79535 276.633 15.2391 276.633 23.1878C276.633 31.1365 282.93 37.5802 290.697 37.5802Z" fill="#9F616A"/>
<path d="M318.512 137.368L261.631 138.007C270.073 105.121 275.122 74.5729 266.319 53.5718L280.383 46.5355C287.164 53.7738 294.717 53.0275 302.885 45.8958L316.324 49.414C314.022 76.9537 315.054 106.449 318.512 137.368Z" fill="#1E4573"/>
<path d="M246.005 103.465L281.321 117.858L289.217 120.234C289.57 120.341 289.94 120.373 290.306 120.329C290.672 120.285 291.025 120.166 291.344 119.979C291.664 119.792 291.943 119.54 292.165 119.24C292.387 118.939 292.548 118.596 292.637 118.231C292.794 117.59 292.723 116.913 292.439 116.32C292.154 115.727 291.673 115.257 291.082 114.992L282.883 112.421L258.194 97.7085L263.35 83.7958L252.568 77.8789L246.005 103.465Z" fill="#9F616A"/>
<path d="M246.318 77.2393C253.037 79.9218 258.381 84.5001 262.569 90.6722L275.695 71.1625L266.319 53.5717L246.318 77.2393Z" fill="#3064A0"/>
<path d="M306.547 20.8552C300.839 19.3501 295.227 19.1435 289.772 21.0525C286.297 22.775 282.123 22.6163 277.482 21.1971V6.83777L302.538 7.52155L306.547 20.8552Z" fill="#2F2E41"/>
<path d="M281.204 86.6964C280.099 86.6977 279.041 87.1472 278.26 87.9463C277.479 88.7455 277.04 89.8289 277.038 90.9591L278.682 126.18C278.684 127.31 279.123 128.394 279.904 129.193C280.685 129.992 281.743 130.442 282.848 130.443H301.645C302.75 130.442 303.809 129.992 304.589 129.193C305.37 128.394 305.81 127.31 305.811 126.18L307.455 90.9591C307.454 89.8289 307.015 88.7455 306.234 87.9463C305.453 87.1472 304.394 86.6977 303.29 86.6964H281.204Z" fill="#3F3D56"/>
<path d="M334.538 100.805L303.756 113.348L301.433 114.295C301.359 114.324 301.285 114.349 301.207 114.374L293.426 116.717C292.432 117.016 291.055 115.645 290.249 114.698C289.85 114.242 289.624 113.655 289.612 113.043C289.6 112.431 289.803 111.835 290.183 111.363C290.291 111.236 290.409 111.119 290.537 111.014C290.837 110.775 291.19 110.616 291.564 110.551L299.337 108.986C299.616 108.93 299.884 108.828 300.13 108.683L303.756 106.521L322.577 95.3069C323.1 94.9955 323.499 94.5041 323.701 93.9202C323.904 93.3363 323.897 92.6978 323.683 92.1184L320.09 82.4227C319.87 81.8295 319.868 81.1744 320.085 80.5799C320.302 79.9855 320.723 79.4922 321.27 79.1922L327.222 75.928C327.562 75.7412 327.939 75.6357 328.325 75.6197C328.71 75.6036 329.094 75.6773 329.448 75.8353C329.802 75.9932 330.116 76.2313 330.367 76.5315C330.618 76.8317 330.799 77.1863 330.896 77.5685L336.063 97.7087C336.222 98.3263 336.155 98.982 335.874 99.5523C335.593 100.123 335.118 100.568 334.538 100.805Z" fill="#9F616A"/>
<path d="M336.326 73.7211C329.607 76.4037 324.263 80.9819 320.074 87.154L306.948 67.6443L316.324 49.4139L336.326 73.7211Z" fill="#3064A0"/>
<path d="M300.056 35.9978C293.904 38.6167 287.453 38.5104 280.738 35.9978C282.692 32.5847 279.771 29.9116 278.271 26.4662L303.345 25.7036C301.427 28.6968 298.598 32.2331 300.056 35.9978Z" fill="#FFA8B6" fill-opacity="0.94"/>
<path d="M303.079 26.2732L302.788 25.9758L303.199 25.5551L305.655 22.6224L305.967 22.8959L303.501 25.8403L303.079 26.2732Z" fill="white"/>
<path d="M276.553 24.4904L276.29 24.8138L278.756 26.9169L279.02 26.5936L276.553 24.4904Z" fill="white"/>
<path d="M303.787 28.7461L299.471 35.686L299.817 35.9119L304.134 28.972L303.787 28.7461Z" fill="white"/>
<path d="M277.006 28.7456L276.659 28.9715L280.975 35.912L281.322 35.6861L277.006 28.7456Z" fill="white"/>
<path d="M304.578 105.926V113.547L301.985 114.603C301.903 114.636 301.82 114.664 301.733 114.692L293.048 117.308C291.937 117.641 290.4 116.11 289.501 115.054C289.056 114.545 288.804 113.889 288.79 113.206C288.777 112.523 289.003 111.858 289.428 111.33C289.548 111.189 289.68 111.058 289.822 110.941C290.157 110.674 290.551 110.497 290.969 110.424L299.645 108.678C299.957 108.615 300.256 108.501 300.531 108.34L304.578 105.926Z" fill="white"/>
<path d="M308.335 78.7446H306.849C306.849 57.2454 302.524 42.263 298.308 42.263L297.937 40.7429C301.717 40.7429 304.127 46.9785 305.483 52.2097C307.322 59.3014 308.335 68.725 308.335 78.7446Z" fill="#3F3D56"/>
<path d="M274.171 73.4244H272.686C272.686 53.7346 277.041 41.503 283.455 41.503L283.083 43.0231C278.647 43.0231 274.171 52.4234 274.171 73.4244Z" fill="#3F3D56"/>
<path d="M307.592 82.9248C309.643 82.9248 311.305 81.2234 311.305 79.1246C311.305 77.0258 309.643 75.3244 307.592 75.3244C305.541 75.3244 303.878 77.0258 303.878 79.1246C303.878 81.2234 305.541 82.9248 307.592 82.9248Z" fill="#3F3D56"/>
<path d="M268.23 82.5447H266.744C266.744 77.0967 269.743 72.6643 273.428 72.6643V74.1844C270.562 74.1844 268.23 77.9348 268.23 82.5447Z" fill="#3F3D56"/>
<path d="M280.113 82.5447H278.627C278.627 77.9348 276.295 74.1844 273.428 74.1844V72.6643C277.114 72.6643 280.113 77.0967 280.113 82.5447Z" fill="#3F3D56"/>
<path d="M279.37 84.4448C280.19 84.4448 280.855 83.7643 280.855 82.9248C280.855 82.0852 280.19 81.4047 279.37 81.4047C278.55 81.4047 277.885 82.0852 277.885 82.9248C277.885 83.7643 278.55 84.4448 279.37 84.4448Z" fill="#3F3D56"/>
<path d="M267.487 84.4448C268.307 84.4448 268.972 83.7643 268.972 82.9248C268.972 82.0852 268.307 81.4047 267.487 81.4047C266.667 81.4047 266.002 82.0852 266.002 82.9248C266.002 83.7643 266.667 84.4448 267.487 84.4448Z" fill="#3F3D56"/>
<path d="M88.484 31.8414L62.3971 36.3622C61.7527 36.4748 61.0904 36.3386 60.5384 35.9802C59.9864 35.6218 59.5839 35.0666 59.4089 34.422C57.5241 27.4606 53.5837 18.3793 57.4094 13.8205C57.6044 11.9026 58.5146 10.1355 59.9505 8.88715C61.3865 7.63877 63.2377 7.00525 65.1186 7.11847C69.7788 -0.346766 77.5411 0.774093 82.7874 5.43647C88.0673 7.30088 90.0579 10.6131 89.3618 15.108C91.6427 17.1512 92.8386 19.4527 93.0908 21.9787C93.2103 23.3844 93.0355 24.8 92.5781 26.1311C92.1207 27.4622 91.3911 28.6781 90.438 29.6978L88.484 31.8414Z" fill="#2F2E41"/>
<path d="M84.4282 52.8586L64.205 51.6413C66.1869 46.9861 66.9786 42.5034 66.1877 38.2499H81.2559C81.2218 41.5157 82.8098 47.1649 84.4282 52.8586Z" fill="#9F616A"/>
<path d="M60.0851 244.093L59.2556 255.697C59.218 256.222 59.2907 256.75 59.4686 257.244C59.6466 257.738 59.9257 258.188 60.2874 258.562C60.649 258.937 61.0847 259.228 61.5654 259.417C62.046 259.605 62.5604 259.686 63.0741 259.654L68.8986 259.293C69.1685 259.276 69.4314 259.199 69.6688 259.066C69.9061 258.934 70.112 258.749 70.2719 258.526C70.4317 258.303 70.5416 258.047 70.5937 257.775C70.6458 257.504 70.6388 257.224 70.5732 256.955L67.3402 243.721L60.0851 244.093Z" fill="#E6E6E6"/>
<path d="M78.9414 243.721L75.7083 256.955C75.6428 257.224 75.6358 257.504 75.6879 257.775C75.7399 258.047 75.8498 258.303 76.0097 258.526C76.1695 258.749 76.3754 258.934 76.6128 259.066C76.8501 259.199 77.1131 259.276 77.383 259.293L83.2074 259.654C83.7211 259.686 84.2355 259.605 84.7162 259.417C85.1968 259.228 85.6326 258.937 85.9942 258.562C86.3558 258.188 86.635 257.738 86.8129 257.244C86.9909 256.75 87.0635 256.222 87.026 255.697L86.1965 244.093L78.9414 243.721Z" fill="#E6E6E6"/>
<path d="M86.5724 245.704L78.7126 244.897L70.8873 159.297L67.9299 244.621L60.2077 244.337L47.1923 126.168H96.9182L86.5724 245.704Z" fill="#1E4573"/>
<path d="M74.1193 43.1761C82.4135 43.1761 89.1372 36.2952 89.1372 27.8073C89.1372 19.3193 82.4135 12.4385 74.1193 12.4385C65.8251 12.4385 59.1014 19.3193 59.1014 27.8073C59.1014 36.2952 65.8251 43.1761 74.1193 43.1761Z" fill="#9F616A"/>
<path d="M91.0453 20.4654C84.95 19.3791 78.9572 19.2299 73.1317 20.6078C69.4208 21.851 64.9643 21.7365 60.0082 20.7121V10.3481L86.7643 10.8416L91.0453 20.4654Z" fill="#2F2E41"/>
<path d="M84.1138 40.1388C77.5439 42.9354 70.655 42.8219 63.4845 40.1388C65.571 36.4942 62.4522 33.6397 60.851 29.9606L87.6252 29.1463C85.5777 32.3425 82.5565 36.1187 84.1138 40.1388Z" fill="#FFA8B6" fill-opacity="0.94"/>
<path d="M59.0075 27.8617L58.7443 28.1851L61.3777 30.4308L61.6409 30.1075L59.0075 27.8617Z" fill="white"/>
<path d="M88.1104 32.4025L83.5006 39.8133L83.8474 40.0392L88.4572 32.6284L88.1104 32.4025Z" fill="white"/>
<path d="M59.4876 32.4022L59.1407 32.628L63.7494 40.0395L64.0963 39.8136L59.4876 32.4022Z" fill="white"/>
<path d="M45.568 97.9022L34.0685 90.5978L43.8755 61.204C44.9693 58.1709 47.0644 55.6243 49.7985 54.0044L53.1021 52.0471L53.3893 81.7L45.568 97.9022Z" fill="#3064A0"/>
<path d="M95.2737 112.178L93.5723 97.2653C93.4815 89.3939 94.79 81.7838 97.9102 74.7717L99.4963 52.8586L82.0489 45.5543C81.9954 45.9181 81.9499 46.2818 81.8989 46.6456L73.7218 50.8297L65.7469 48.9749L65.7911 46.3659L49.9298 53.6703C55.1751 78.626 52.3142 104.541 43.2941 135.152L64.1899 140.999L64.3637 130.731L82.9863 129.37C83.1782 132.701 83.3323 135.973 83.4218 139.173C93.93 143.132 94.2909 143.066 103.865 137.398C100.052 129.194 97.0335 120.657 95.2737 112.178Z" fill="#1E4573"/>
<path d="M122.099 94.2498L111.392 90.5978L94.267 70.1955L99.4962 52.8589L123.288 86.9458L122.099 94.2498Z" fill="#3064A0"/>
<path d="M88.5451 110.045C88.7202 110.832 89.1931 111.515 89.86 111.946C90.5269 112.376 91.3334 112.518 92.1026 112.341L101.191 110.235L99.8774 104.298L90.7889 106.404C90.0196 106.583 89.3511 107.066 88.9303 107.749C88.5095 108.432 88.371 109.258 88.5451 110.045V110.045Z" fill="#E6E6E6"/>
<path d="M96.7206 103.178L101.876 112.917C110.546 110.442 118.06 102.64 125.271 93.4384L123.288 86.9456L110.996 90.192L96.7206 103.178Z" fill="#3064A0"/>
<path d="M29.5083 72.6281L39.4044 74.4364L62.0241 107.35L50.0075 104.457L29.5083 72.6281Z" fill="#E6E6E6"/>
<path d="M27.7531 72.2252C27.6023 72.2275 27.4548 72.2713 27.3262 72.3519C27.1976 72.4324 27.0925 72.5469 27.0219 72.6833C26.9513 72.8197 26.9178 72.973 26.925 73.1272C26.9321 73.2813 26.9796 73.4307 27.0624 73.5597L48.2058 106.389C48.3238 106.573 48.5061 106.703 48.7151 106.753L58.5525 109.122C58.7183 109.162 58.8921 109.149 59.0508 109.086C59.2096 109.022 59.3457 108.911 59.4411 108.766C59.5365 108.622 59.5868 108.451 59.5852 108.277C59.5837 108.102 59.5303 107.933 59.4323 107.79L36.2181 74.011C36.1551 73.919 36.0751 73.8406 35.9825 73.7802C35.8899 73.7199 35.7866 73.6788 35.6785 73.6594L27.9116 72.2399C27.8593 72.2302 27.8062 72.2253 27.7531 72.2252Z" fill="#3F3D56"/>
<path d="M40.9424 95.6978L41.53 101.755L50.8028 100.813C51.5877 100.733 52.3095 100.338 52.8095 99.7135C53.3094 99.0891 53.5465 98.2871 53.4686 97.4839C53.3907 96.6807 53.0042 95.942 52.3941 95.4304C51.784 94.9188 51.0003 94.6761 50.2154 94.7559L40.9424 95.6978Z" fill="#E6E6E6"/>
<path d="M32.8792 94.9962C32.8926 97.0616 33.7032 99.0378 35.1343 100.494C36.5653 101.951 38.5009 102.769 40.5192 102.772H42.0439L43.154 93.305L33.963 89.919L32.8792 94.9962Z" fill="#3064A0"/>
<path d="M86.8926 30.1935L86.602 29.8961L87.041 29.4469L89.6638 26.3144L89.9758 26.5878L87.3423 29.7321L86.8926 30.1935Z" fill="white"/>
<path d="M365 259.159H0V260H365V259.159Z" fill="#3F3D56"/>
<path d="M139.341 258.738H225.659V151.594C225.659 145.921 220.198 141.305 213.486 141.305H151.514C144.802 141.305 139.341 145.921 139.341 151.594V258.738Z" fill="#E6E6E6"/>
<path d="M145.918 254.307H219.082V163.49C219.082 158.681 214.454 154.769 208.765 154.769H156.235C150.546 154.769 145.918 158.681 145.918 163.49V254.307Z" fill="white"/>
<path d="M138.689 132.967C136.556 132.967 134.82 134.434 134.82 136.237V145.678C134.82 147.481 136.556 148.949 138.689 148.949H226.311C228.445 148.949 230.18 147.481 230.18 145.678V136.237C230.18 134.434 228.445 132.967 226.311 132.967H138.689Z" fill="#3F3D56"/>
<path d="M156.679 242.662C155.677 242.665 154.718 243.074 154.009 243.799C153.301 244.524 152.902 245.506 152.899 246.531C152.902 247.556 153.301 248.538 154.009 249.263C154.718 249.988 155.677 250.396 156.679 250.399H163.755V242.662H156.679Z" fill="#3F3D56"/>
<path d="M170.249 242.662H163.367V250.399H170.249C171.251 250.396 172.21 249.988 172.919 249.263C173.627 248.538 174.026 247.556 174.029 246.531C174.026 245.506 173.627 244.524 172.919 243.799C172.21 243.074 171.251 242.665 170.249 242.662Z" fill="#3064A0"/>
<path opacity="0.2" d="M172.716 243.61C173.312 244.309 173.64 245.206 173.641 246.134C173.638 247.159 173.239 248.141 172.531 248.866C171.823 249.591 170.863 250 169.861 250.003H163.367V250.399H170.249C171.251 250.396 172.21 249.988 172.919 249.263C173.627 248.538 174.026 247.556 174.029 246.531C174.028 245.976 173.91 245.428 173.684 244.924C173.457 244.42 173.127 243.971 172.716 243.61Z" fill="black"/>
<path d="M188.609 184.393C187.919 183.649 186.971 183.214 185.969 183.184C184.968 183.154 183.996 183.53 183.265 184.231C182.538 184.937 182.113 185.908 182.084 186.932C182.054 187.957 182.422 188.952 183.107 189.7L187.961 194.969L193.462 189.662L188.609 184.393Z" fill="#3F3D56"/>
<path d="M197.917 194.498L193.196 189.373L187.695 194.68L192.415 199.805C193.104 200.549 194.053 200.983 195.054 201.013C196.056 201.044 197.028 200.667 197.759 199.966C198.486 199.261 198.91 198.29 198.94 197.265C198.969 196.241 198.602 195.246 197.917 194.498Z" fill="#3064A0"/>
<path opacity="0.2" d="M198.935 196.984C198.846 197.908 198.434 198.768 197.775 199.405C197.044 200.106 196.072 200.483 195.071 200.452C194.069 200.422 193.121 199.988 192.431 199.244L187.977 194.408L187.695 194.68L192.415 199.805C193.104 200.549 194.053 200.983 195.054 201.013C196.056 201.044 197.028 200.667 197.759 199.966C198.153 199.585 198.462 199.121 198.665 198.607C198.868 198.092 198.96 197.539 198.935 196.984Z" fill="black"/>
<path d="M168.468 196.591C167.779 195.847 166.83 195.413 165.829 195.383C164.827 195.352 163.855 195.729 163.124 196.43C162.397 197.135 161.973 198.106 161.943 199.131C161.914 200.155 162.281 201.15 162.966 201.898L167.82 207.167L173.321 201.86L168.468 196.591Z" fill="#3F3D56"/>
<path d="M177.776 206.696L173.055 201.572L167.554 206.879L172.274 212.003C172.964 212.747 173.912 213.182 174.914 213.212C175.915 213.242 176.887 212.866 177.618 212.165C178.345 211.459 178.769 210.488 178.799 209.464C178.829 208.439 178.461 207.444 177.776 206.696Z" fill="#3064A0"/>
<path opacity="0.2" d="M178.794 209.183C178.706 210.107 178.294 210.967 177.634 211.604C176.903 212.305 175.931 212.681 174.93 212.651C173.929 212.621 172.98 212.186 172.291 211.442L167.836 206.606L167.554 206.879L172.274 212.003C172.964 212.747 173.912 213.182 174.914 213.212C175.915 213.242 176.887 212.866 177.618 212.165C178.012 211.783 178.321 211.32 178.524 210.805C178.727 210.291 178.819 209.737 178.794 209.183Z" fill="black"/>
<path d="M188.609 207.949C187.919 207.205 186.971 206.77 185.969 206.74C184.968 206.71 183.996 207.086 183.265 207.787C182.538 208.492 182.113 209.463 182.084 210.488C182.054 211.513 182.422 212.508 183.107 213.256L187.961 218.525L193.462 213.218L188.609 207.949Z" fill="#3F3D56"/>
<path d="M197.917 218.054L193.196 212.929L187.695 218.236L192.415 223.361C193.104 224.104 194.053 224.539 195.054 224.569C196.056 224.599 197.028 224.223 197.759 223.522C198.486 222.817 198.91 221.846 198.94 220.821C198.969 219.797 198.602 218.802 197.917 218.054Z" fill="#3064A0"/>
<path opacity="0.2" d="M198.935 220.54C198.846 221.464 198.434 222.324 197.775 222.961C197.044 223.662 196.072 224.039 195.071 224.008C194.069 223.978 193.121 223.544 192.431 222.8L187.977 217.964L187.695 218.236L192.415 223.361C193.104 224.104 194.053 224.539 195.054 224.569C196.056 224.599 197.028 224.223 197.759 223.522C198.153 223.141 198.462 222.677 198.665 222.162C198.868 221.648 198.96 221.095 198.935 220.54Z" fill="black"/>
<path d="M200.896 232.121C201.614 231.407 202.027 230.431 202.044 229.406C202.062 228.381 201.682 227.391 200.988 226.651C200.29 225.916 199.336 225.494 198.335 225.476C197.333 225.458 196.366 225.846 195.643 226.556L190.554 231.587L195.806 237.152L200.896 232.121Z" fill="#3F3D56"/>
<path d="M191.135 241.769L196.085 236.876L190.833 231.311L185.883 236.204C185.164 236.918 184.751 237.895 184.734 238.919C184.716 239.944 185.096 240.935 185.79 241.674C186.488 242.409 187.442 242.832 188.443 242.85C189.445 242.868 190.413 242.479 191.135 241.769Z" fill="#3064A0"/>
<path opacity="0.2" d="M188.718 242.841C187.814 242.762 186.969 242.351 186.338 241.684C185.644 240.944 185.265 239.954 185.282 238.929C185.299 237.904 185.712 236.928 186.431 236.214L191.102 231.597L190.833 231.311L185.883 236.204C185.164 236.918 184.751 237.895 184.734 238.919C184.716 239.944 185.096 240.935 185.79 241.674C186.167 242.072 186.624 242.383 187.129 242.584C187.635 242.786 188.176 242.873 188.718 242.841Z" fill="black"/>
<path d="M173.767 219.923C174.486 219.209 174.899 218.232 174.916 217.208C174.933 216.183 174.554 215.192 173.86 214.453C173.162 213.718 172.208 213.295 171.207 213.277C170.205 213.259 169.237 213.648 168.515 214.358L163.425 219.388L168.678 224.953L173.767 219.923Z" fill="#3F3D56"/>
<path d="M164.007 229.57L168.957 224.678L163.704 219.113L158.754 224.005C158.036 224.72 157.623 225.696 157.605 226.721C157.588 227.746 157.968 228.736 158.662 229.475C159.36 230.211 160.313 230.633 161.315 230.651C162.316 230.669 163.284 230.28 164.007 229.57Z" fill="#3064A0"/>
<path opacity="0.2" d="M161.589 230.643C160.686 230.563 159.84 230.152 159.21 229.485C158.516 228.746 158.136 227.756 158.154 226.731C158.171 225.706 158.584 224.729 159.303 224.015L163.974 219.398L163.704 219.113L158.754 224.005C158.036 224.72 157.623 225.696 157.605 226.721C157.588 227.746 157.968 228.736 158.662 229.475C159.039 229.874 159.496 230.185 160.001 230.386C160.506 230.587 161.048 230.675 161.589 230.643Z" fill="black"/>
<path d="M212.405 205.201C213.123 204.486 213.536 203.51 213.553 202.485C213.571 201.46 213.191 200.47 212.497 199.73C211.799 198.995 210.845 198.573 209.844 198.555C208.842 198.537 207.875 198.926 207.152 199.636L202.063 204.666L207.315 210.231L212.405 205.201Z" fill="#3F3D56"/>
<path d="M202.644 214.848L207.594 209.955L202.342 204.39L197.392 209.283C196.673 209.997 196.26 210.974 196.243 211.998C196.225 213.023 196.605 214.014 197.299 214.753C197.997 215.488 198.951 215.911 199.952 215.929C200.954 215.947 201.922 215.558 202.644 214.848Z" fill="#3064A0"/>
<path opacity="0.2" d="M200.227 215.92C199.323 215.841 198.478 215.43 197.847 214.763C197.153 214.023 196.774 213.033 196.791 212.008C196.808 210.983 197.222 210.007 197.94 209.293L202.611 204.676L202.342 204.39L197.392 209.283C196.673 209.997 196.26 210.974 196.243 211.998C196.225 213.023 196.605 214.014 197.299 214.753C197.676 215.152 198.133 215.462 198.638 215.664C199.144 215.865 199.685 215.953 200.227 215.92Z" fill="black"/>
<path d="M203.817 235.711C203.128 234.967 202.179 234.532 201.178 234.502C200.176 234.472 199.204 234.848 198.473 235.549C197.746 236.255 197.322 237.226 197.292 238.25C197.263 239.275 197.631 240.27 198.315 241.018L203.169 246.287L208.67 240.98L203.817 235.711Z" fill="#3F3D56"/>
<path d="M213.125 245.816L208.404 240.691L202.903 245.998L207.623 251.123C208.313 251.867 209.262 252.301 210.263 252.331C211.264 252.362 212.236 251.985 212.967 251.284C213.694 250.579 214.119 249.608 214.148 248.583C214.178 247.559 213.81 246.564 213.125 245.816Z" fill="#3064A0"/>
<path opacity="0.2" d="M214.143 248.303C214.055 249.226 213.643 250.086 212.983 250.723C212.252 251.424 211.28 251.801 210.279 251.771C209.278 251.74 208.329 251.306 207.64 250.562L203.185 245.726L202.903 245.998L207.623 251.123C208.313 251.867 209.262 252.301 210.263 252.331C211.264 252.362 212.236 251.985 212.967 251.284C213.361 250.903 213.67 250.439 213.873 249.925C214.076 249.41 214.168 248.857 214.143 248.303Z" fill="black"/>
<path d="M177.1 235.29C176.41 234.546 175.461 234.112 174.46 234.082C173.459 234.051 172.487 234.428 171.756 235.129C171.029 235.834 170.604 236.805 170.575 237.83C170.545 238.854 170.913 239.849 171.598 240.597L176.452 245.866L181.953 240.559L177.1 235.29Z" fill="#3F3D56"/>
<path d="M186.408 245.395L181.687 240.271L176.186 245.578L180.906 250.702C181.595 251.446 182.544 251.881 183.545 251.911C184.547 251.941 185.519 251.565 186.25 250.864C186.977 250.158 187.401 249.187 187.431 248.163C187.46 247.138 187.092 246.143 186.408 245.395Z" fill="#3064A0"/>
<path opacity="0.2" d="M187.426 247.882C187.337 248.806 186.925 249.665 186.266 250.303C185.535 251.004 184.563 251.38 183.562 251.35C182.56 251.32 181.612 250.885 180.922 250.141L176.468 245.305L176.186 245.578L180.906 250.702C181.595 251.446 182.544 251.881 183.545 251.911C184.547 251.941 185.519 251.565 186.25 250.864C186.644 250.482 186.953 250.019 187.156 249.504C187.359 248.989 187.451 248.436 187.426 247.882Z" fill="black"/>
<path d="M184.62 221.412C184.62 222.698 184.186 223.945 183.392 224.941C182.597 225.937 181.49 226.622 180.259 226.879C179.539 227.028 178.798 227.028 178.078 226.879C176.847 226.622 175.74 225.937 174.946 224.941C174.151 223.944 173.717 222.698 173.717 221.412C173.717 220.126 174.151 218.879 174.946 217.883C175.74 216.887 176.847 216.202 178.078 215.944C178.798 215.796 179.539 215.796 180.259 215.944C181.49 216.202 182.597 216.886 183.392 217.883C184.186 218.879 184.62 220.126 184.62 221.412Z" fill="#3064A0"/>
<path opacity="0.2" d="M180.259 215.944V226.879C179.539 227.028 178.798 227.028 178.078 226.879V215.944C178.798 215.796 179.539 215.796 180.259 215.944Z" fill="black"/>
<path d="M187.086 199.118C187.087 200.404 186.653 201.651 185.858 202.647C185.063 203.643 183.956 204.328 182.725 204.585C182.005 204.734 181.264 204.734 180.544 204.585C179.313 204.328 178.206 203.643 177.412 202.647C176.617 201.651 176.183 200.404 176.183 199.118C176.183 197.832 176.617 196.585 177.412 195.589C178.206 194.593 179.313 193.908 180.544 193.65C181.264 193.502 182.005 193.502 182.725 193.65C183.956 193.908 185.063 194.592 185.858 195.589C186.653 196.585 187.087 197.832 187.086 199.118Z" fill="#3064A0"/>
<path opacity="0.2" d="M182.725 193.65V204.585C182.005 204.734 181.264 204.734 180.544 204.585V193.65C181.264 193.502 182.005 193.502 182.725 193.65Z" fill="black"/>
<path d="M187.086 231.087C187.087 232.373 186.653 233.619 185.858 234.616C185.063 235.612 183.956 236.297 182.725 236.554C182.005 236.703 181.264 236.703 180.544 236.554C179.313 236.297 178.206 235.612 177.412 234.615C176.617 233.619 176.183 232.373 176.183 231.087C176.183 229.8 176.617 228.554 177.412 227.558C178.206 226.561 179.313 225.877 180.544 225.619C181.264 225.47 182.005 225.47 182.725 225.619C183.956 225.876 185.063 226.561 185.858 227.557C186.653 228.554 187.087 229.8 187.086 231.087Z" fill="#3064A0"/>
<path opacity="0.2" d="M182.725 225.619V236.554C182.005 236.703 181.264 236.703 180.544 236.554V225.619C181.264 225.47 182.005 225.47 182.725 225.619Z" fill="black"/>
<path d="M200.65 246.65C200.651 247.936 200.217 249.183 199.422 250.179C198.627 251.176 197.521 251.86 196.289 252.118C195.57 252.266 194.828 252.266 194.109 252.118C192.877 251.86 191.771 251.175 190.976 250.179C190.181 249.183 189.747 247.936 189.747 246.65C189.747 245.364 190.181 244.118 190.976 243.121C191.771 242.125 192.877 241.44 194.109 241.183C194.828 241.034 195.57 241.034 196.289 241.183C197.521 241.44 198.627 242.125 199.422 243.121C200.217 244.117 200.651 245.364 200.65 246.65Z" fill="#3064A0"/>
<path opacity="0.2" d="M196.289 241.183V252.118C195.57 252.266 194.828 252.266 194.109 252.118V241.183C194.828 241.034 195.57 241.034 196.289 241.183Z" fill="black"/>
<path d="M212.633 218.015C213.538 218.907 214.114 220.092 214.263 221.369C214.413 222.646 214.126 223.937 213.453 225.023C213.058 225.656 212.544 226.202 211.94 226.629C210.904 227.358 209.654 227.698 208.402 227.592C207.149 227.486 205.971 226.941 205.066 226.049C204.161 225.156 203.586 223.971 203.436 222.694C203.287 221.417 203.573 220.127 204.246 219.041C204.641 218.407 205.155 217.861 205.76 217.434C206.795 216.705 208.045 216.365 209.297 216.471C210.55 216.577 211.728 217.122 212.633 218.015Z" fill="#3064A0"/>
<path opacity="0.2" d="M205.76 217.434L213.453 225.023C213.058 225.656 212.544 226.202 211.94 226.629L204.246 219.041C204.641 218.407 205.155 217.861 205.76 217.434Z" fill="black"/>
<path d="M214.277 230.213C215.182 231.106 215.758 232.291 215.907 233.568C216.057 234.845 215.771 236.135 215.097 237.221C214.702 237.855 214.188 238.401 213.584 238.828C212.548 239.556 211.298 239.897 210.046 239.791C208.794 239.685 207.615 239.14 206.71 238.247C205.806 237.355 205.23 236.17 205.08 234.893C204.931 233.616 205.217 232.325 205.89 231.239C206.285 230.606 206.8 230.06 207.404 229.633C208.439 228.904 209.689 228.564 210.942 228.669C212.194 228.775 213.372 229.321 214.277 230.213Z" fill="#3064A0"/>
<path opacity="0.2" d="M207.404 229.633L215.097 237.221C214.702 237.855 214.188 238.401 213.584 238.828L205.89 231.239C206.285 230.606 206.8 230.06 207.404 229.633Z" fill="black"/>
<path d="M165.364 233.158C166.269 234.05 166.845 235.235 166.994 236.512C167.144 237.789 166.857 239.08 166.184 240.166C165.789 240.799 165.275 241.345 164.67 241.772C163.635 242.501 162.385 242.841 161.133 242.735C159.88 242.629 158.702 242.084 157.797 241.192C156.892 240.299 156.316 239.114 156.167 237.837C156.018 236.56 156.304 235.27 156.977 234.184C157.372 233.55 157.886 233.004 158.49 232.577C159.526 231.848 160.776 231.508 162.028 231.614C163.281 231.72 164.459 232.265 165.364 233.158Z" fill="#3064A0"/>
<path opacity="0.2" d="M158.49 232.577L166.184 240.166C165.789 240.799 165.275 241.345 164.67 241.772L156.977 234.184C157.372 233.55 157.886 233.004 158.49 232.577Z" fill="black"/>
<path opacity="0.2" d="M147.767 132.967H145.712V148.53H147.767V132.967Z" fill="black"/>
<path opacity="0.2" d="M159.688 132.967H157.632V148.53H159.688V132.967Z" fill="black"/>
<path opacity="0.2" d="M171.608 132.967H169.552V148.53H171.608V132.967Z" fill="black"/>
<path opacity="0.2" d="M183.528 132.967H181.472V148.53H183.528V132.967Z" fill="black"/>
<path opacity="0.2" d="M195.448 132.967H193.392V148.53H195.448V132.967Z" fill="black"/>
<path opacity="0.2" d="M207.368 132.967H205.312V148.53H207.368V132.967Z" fill="black"/>
<path opacity="0.2" d="M219.288 132.967H217.233V148.53H219.288V132.967Z" fill="black"/>
</svg>
